<svg width="300" height="200" viewBox="0 0 300 200" fill="none" xmlns="http://www.w3.org/2000/svg">
<rect width="300" height="200" rx="16" fill="#F47068"/>
<path d="M107.28 109.96C110.712 109.96 113.396 110.811 115.332 112.512C117.268 114.213 118.236 116.589 118.236 119.64C118.236 122.72 117.268 125.111 115.332 126.812C113.396 128.484 110.712 129.32 107.28 129.32H101.78V139H94.212V109.96H107.28ZM106.092 123.644C107.588 123.644 108.717 123.321 109.48 122.676C110.243 122.001 110.624 120.989 110.624 119.64C110.624 118.291 110.243 117.293 109.48 116.648C108.717 115.973 107.588 115.636 106.092 115.636H101.78V123.644H106.092ZM132.512 116.56C134.8 116.56 136.81 117.015 138.54 117.924C140.271 118.833 141.62 120.139 142.588 121.84C143.586 123.541 144.084 125.595 144.084 128C144.084 130.405 143.586 132.459 142.588 134.16C141.62 135.861 140.271 137.167 138.54 138.076C136.81 138.985 134.8 139.44 132.512 139.44C130.254 139.44 128.259 138.985 126.528 138.076C124.798 137.167 123.448 135.861 122.48 134.16C121.512 132.459 121.028 130.405 121.028 128C121.028 125.595 121.512 123.541 122.48 121.84C123.448 120.139 124.798 118.833 126.528 117.924C128.259 117.015 130.254 116.56 132.512 116.56ZM132.512 121.884C131.691 121.884 130.972 122.104 130.356 122.544C129.77 122.955 129.315 123.615 128.992 124.524C128.699 125.404 128.552 126.563 128.552 128C128.552 129.437 128.699 130.611 128.992 131.52C129.315 132.4 129.77 133.06 130.356 133.5C130.972 133.911 131.691 134.116 132.512 134.116C133.363 134.116 134.082 133.911 134.668 133.5C135.284 133.06 135.754 132.385 136.076 131.476C136.399 130.567 136.56 129.408 136.56 128C136.56 126.563 136.399 125.404 136.076 124.524C135.754 123.615 135.284 122.955 134.668 122.544C134.082 122.104 133.363 121.884 132.512 121.884ZM157.405 139.44C155.205 139.44 153.181 139.088 151.333 138.384C149.515 137.651 147.975 136.609 146.713 135.26L150.189 131.124C150.923 132.063 151.891 132.855 153.093 133.5C154.325 134.116 155.66 134.424 157.097 134.424C157.948 134.424 158.667 134.292 159.253 134.028C159.84 133.764 160.133 133.353 160.133 132.796C160.133 132.385 159.987 132.063 159.693 131.828C159.4 131.564 158.828 131.344 157.977 131.168L154.985 130.552C152.228 129.965 150.277 129.129 149.133 128.044C148.019 126.959 147.461 125.521 147.461 123.732C147.461 122.529 147.828 121.385 148.561 120.3C149.295 119.215 150.409 118.32 151.905 117.616C153.431 116.912 155.352 116.56 157.669 116.56C159.899 116.56 161.849 116.897 163.521 117.572C165.193 118.217 166.528 119.141 167.525 120.344L164.005 124.392C163.301 123.512 162.392 122.823 161.277 122.324C160.192 121.825 159.107 121.576 158.021 121.576C157.317 121.576 156.731 121.649 156.261 121.796C155.821 121.913 155.484 122.089 155.249 122.324C155.015 122.559 154.897 122.852 154.897 123.204C154.897 123.615 155.088 123.967 155.469 124.26C155.851 124.524 156.496 124.744 157.405 124.92L161.365 125.712C163.595 126.152 165.193 126.915 166.161 128C167.159 129.056 167.657 130.347 167.657 131.872C167.657 134.013 166.807 135.817 165.105 137.284C163.404 138.721 160.837 139.44 157.405 139.44ZM180.651 110.004V131.168C180.651 132.224 180.901 132.987 181.399 133.456C181.898 133.896 182.602 134.116 183.511 134.116C184.186 134.116 184.773 134.028 185.271 133.852C185.77 133.676 186.225 133.441 186.635 133.148L187.427 137.768C186.694 138.267 185.77 138.677 184.655 139C183.57 139.293 182.455 139.44 181.311 139.44C178.818 139.44 176.838 138.912 175.371 137.856C173.934 136.771 173.215 134.952 173.215 132.4V112.072L180.651 110.004ZM187.075 117V122.324H169.475V117H187.075ZM198.016 117V139H190.536V117H198.016ZM194.276 114.448C192.75 114.448 191.636 114.169 190.932 113.612C190.257 113.025 189.92 112.116 189.92 110.884C189.92 109.623 190.257 108.713 190.932 108.156C191.636 107.569 192.75 107.276 194.276 107.276C195.801 107.276 196.901 107.569 197.576 108.156C198.28 108.713 198.632 109.623 198.632 110.884C198.632 112.116 198.28 113.025 197.576 113.612C196.901 114.169 195.801 114.448 194.276 114.448ZM213.416 107.056C214.59 107.056 215.631 107.188 216.54 107.452C217.45 107.687 218.124 107.965 218.564 108.288L217.816 112.952C217.523 112.776 217.156 112.629 216.716 112.512C216.306 112.365 215.807 112.292 215.22 112.292C214.223 112.292 213.402 112.527 212.756 112.996C212.111 113.436 211.788 114.257 211.788 115.46V118.32L212.228 119.552V139H204.748V114.976C204.748 113.099 205.144 111.588 205.936 110.444C206.758 109.271 207.828 108.42 209.148 107.892C210.468 107.335 211.891 107.056 213.416 107.056ZM218.344 117V122.324H201.316V117H218.344ZM243.299 117L235.467 139C234.646 141.317 233.751 143.165 232.783 144.544C231.815 145.923 230.671 146.92 229.351 147.536C228.031 148.152 226.447 148.46 224.599 148.46C223.367 148.46 222.238 148.328 221.211 148.064C220.214 147.8 219.334 147.433 218.571 146.964L220.067 141.904C220.566 142.285 221.108 142.549 221.695 142.696C222.282 142.872 223.03 142.96 223.939 142.96C224.966 142.96 225.714 142.769 226.183 142.388C226.652 142.036 227.019 141.523 227.283 140.848L227.811 139.484L225.303 133.5L218.791 117H227.019L230.319 129.54L231.331 134.204L232.563 129.364L235.863 117H243.299Z" fill="black"/>
<path d="M48 44V68L54 80L60 68V53H90V80H54L59.9062 86.375L58.9688 87.0312L51 92.5625V86H42V53H45V47H42C38.6836 47 36 49.6836 36 53V86C36 89.3164 38.6836 92 42 92H45V104L62.4375 92H90C93.3164 92 96 89.3164 96 86V53C96 49.6836 93.3164 47 90 47H60V44H48ZM54 65L58.0312 67.0625L56.1562 71H51.8438L49.9688 66.9688L54 65Z" fill="black"/>
</svg>
