<svg width="300" height="200" viewBox="0 0 300 200" fill="none" xmlns="http://www.w3.org/2000/svg">
<rect width="300" height="200" rx="16" fill="#68E1F4"/>
<path d="M95.65 103.86C98.142 103.86 100.354 104.252 102.286 105.036C104.246 105.82 105.94 106.996 107.368 108.564L103.924 113.226C102.72 111.966 101.432 111.028 100.06 110.412C98.716 109.768 97.204 109.446 95.524 109.446C94.544 109.446 93.746 109.558 93.13 109.782C92.542 110.006 92.108 110.314 91.828 110.706C91.548 111.098 91.408 111.546 91.408 112.05C91.408 112.75 91.702 113.296 92.29 113.688C92.906 114.052 93.718 114.346 94.726 114.57L99.262 115.62C101.978 116.236 103.966 117.174 105.226 118.434C106.486 119.666 107.116 121.304 107.116 123.348C107.116 125.308 106.612 126.974 105.604 128.346C104.624 129.69 103.266 130.712 101.53 131.412C99.794 132.084 97.82 132.42 95.608 132.42C93.816 132.42 92.108 132.224 90.484 131.832C88.86 131.412 87.376 130.824 86.032 130.068C84.716 129.312 83.596 128.444 82.672 127.464L86.116 122.634C86.816 123.446 87.67 124.174 88.678 124.818C89.686 125.434 90.778 125.924 91.954 126.288C93.13 126.652 94.32 126.834 95.524 126.834C96.476 126.834 97.246 126.736 97.834 126.54C98.45 126.344 98.912 126.05 99.22 125.658C99.528 125.266 99.682 124.804 99.682 124.272C99.682 123.684 99.472 123.18 99.052 122.76C98.66 122.34 97.918 122.004 96.826 121.752L91.828 120.618C90.456 120.31 89.168 119.876 87.964 119.316C86.76 118.728 85.78 117.916 85.024 116.88C84.268 115.844 83.89 114.514 83.89 112.89C83.89 111.154 84.352 109.614 85.276 108.27C86.228 106.898 87.586 105.82 89.35 105.036C91.114 104.252 93.214 103.86 95.65 103.86ZM110.935 132V111H117.319L117.697 118.224L116.899 117.426C117.319 115.186 118.201 113.492 119.545 112.344C120.889 111.168 122.583 110.58 124.627 110.58C126.055 110.58 127.301 110.86 128.365 111.42C129.429 111.98 130.255 112.82 130.843 113.94C131.459 115.032 131.767 116.39 131.767 118.014V132H124.627V119.904C124.627 118.476 124.361 117.482 123.829 116.922C123.297 116.334 122.597 116.04 121.729 116.04C121.085 116.04 120.483 116.208 119.923 116.544C119.363 116.852 118.915 117.356 118.579 118.056C118.243 118.756 118.075 119.694 118.075 120.87V132H110.935ZM148.325 118.686C148.325 117.706 148.059 116.936 147.527 116.376C146.995 115.788 146.281 115.494 145.385 115.494C144.489 115.494 143.719 115.732 143.075 116.208C142.431 116.656 141.983 117.468 141.731 118.644L135.683 117.216C136.075 115.2 137.097 113.59 138.749 112.386C140.429 111.182 142.781 110.58 145.805 110.58C147.821 110.58 149.543 110.888 150.971 111.504C152.427 112.092 153.533 112.988 154.289 114.192C155.045 115.368 155.423 116.824 155.423 118.56V126.246C155.423 127.338 155.899 127.884 156.851 127.884C157.075 127.884 157.285 127.87 157.481 127.842C157.705 127.814 157.901 127.772 158.069 127.716L157.649 131.79C157.257 131.986 156.809 132.126 156.305 132.21C155.801 132.322 155.227 132.378 154.583 132.378C153.519 132.378 152.567 132.21 151.727 131.874C150.887 131.51 150.229 130.978 149.753 130.278C149.277 129.55 149.039 128.64 149.039 127.548V127.296L149.837 127.002C149.837 128.206 149.473 129.214 148.745 130.026C148.045 130.838 147.135 131.44 146.015 131.832C144.923 132.224 143.761 132.42 142.529 132.42C140.401 132.42 138.707 131.93 137.447 130.95C136.187 129.942 135.557 128.5 135.557 126.624C135.557 125.14 136.005 123.894 136.901 122.886C137.797 121.878 139.211 121.178 141.143 120.786L148.997 119.148L148.955 122.928L145.007 123.768C144.251 123.936 143.663 124.174 143.243 124.482C142.823 124.79 142.613 125.28 142.613 125.952C142.613 126.568 142.823 127.03 143.243 127.338C143.691 127.646 144.209 127.8 144.797 127.8C145.273 127.8 145.721 127.73 146.141 127.59C146.561 127.45 146.925 127.24 147.233 126.96C147.569 126.652 147.835 126.274 148.031 125.826C148.227 125.378 148.325 124.846 148.325 124.23V118.686ZM160.892 140.82V111H167.318L167.696 118.602L166.856 117.72C167.164 115.648 167.976 113.94 169.292 112.596C170.608 111.252 172.288 110.58 174.332 110.58C176.04 110.58 177.524 111.014 178.784 111.882C180.044 112.722 181.024 113.954 181.724 115.578C182.452 117.174 182.816 119.12 182.816 121.416C182.816 123.74 182.452 125.728 181.724 127.38C180.996 129.004 179.988 130.25 178.7 131.118C177.44 131.986 175.956 132.42 174.248 132.42C172.372 132.42 170.846 131.846 169.67 130.698C168.522 129.55 167.752 128.122 167.36 126.414L168.032 125.406V140.82H160.892ZM171.812 127.17C172.988 127.17 173.912 126.708 174.584 125.784C175.284 124.86 175.634 123.432 175.634 121.5C175.634 119.568 175.298 118.14 174.626 117.216C173.954 116.292 173.03 115.83 171.854 115.83C171.07 115.83 170.384 116.054 169.796 116.502C169.236 116.922 168.802 117.552 168.494 118.392C168.186 119.232 168.032 120.268 168.032 121.5C168.032 122.676 168.172 123.684 168.452 124.524C168.76 125.364 169.194 126.022 169.754 126.498C170.314 126.946 171 127.17 171.812 127.17ZM194.378 126.414H207.776V132H187.154V104.28H194.378V126.414ZM218.563 111V132H211.423V111H218.563ZM214.993 108.564C213.537 108.564 212.473 108.298 211.801 107.766C211.157 107.206 210.835 106.338 210.835 105.162C210.835 103.958 211.157 103.09 211.801 102.558C212.473 101.998 213.537 101.718 214.993 101.718C216.449 101.718 217.499 101.998 218.143 102.558C218.815 103.09 219.151 103.958 219.151 105.162C219.151 106.338 218.815 107.206 218.143 107.766C217.499 108.298 216.449 108.564 214.993 108.564ZM223.646 132V111H230.03L230.408 118.224L229.61 117.426C230.03 115.186 230.912 113.492 232.256 112.344C233.6 111.168 235.294 110.58 237.338 110.58C238.766 110.58 240.012 110.86 241.076 111.42C242.14 111.98 242.966 112.82 243.554 113.94C244.17 115.032 244.478 116.39 244.478 118.014V132H237.338V119.904C237.338 118.476 237.072 117.482 236.54 116.922C236.008 116.334 235.308 116.04 234.44 116.04C233.796 116.04 233.194 116.208 232.634 116.544C232.074 116.852 231.626 117.356 231.29 118.056C230.954 118.756 230.786 119.694 230.786 120.87V132H223.646ZM272.334 111L262.38 121.752L261.036 122.13L255.114 128.85L255.072 121.542L264.396 111H272.334ZM256.626 102.096V132H249.486V102.096H256.626ZM263.472 117.3L272.796 132H264.9L258.81 121.5L263.472 117.3Z" fill="black"/>
<g clip-path="url(#clip0_50_6)">
<path d="M46.7542 104.547C41.7518 99.8821 41.4774 92.0239 46.1422 87.0214L57.0542 75.3198L51.4959 70.1366L40.5839 81.8383C33.0547 89.9124 33.4969 102.576 41.571 110.105C49.6452 117.635 62.3088 117.192 69.8381 109.118L80.7501 97.4165L75.1918 92.2333L64.2798 103.935C59.6149 108.937 51.7567 109.212 46.7542 104.547ZM60.8644 95.2808L82.6884 71.8775L76.8375 66.4215L55.0136 89.8248L60.8644 95.2808ZM67.8639 52.5841L56.9519 64.2858L62.5102 69.469L73.4222 57.7673C78.087 52.7648 85.9453 52.4904 90.9477 57.1553C95.9502 61.8202 96.2246 69.6784 91.5597 74.6809L80.6478 86.3825L86.206 91.5657L97.118 79.864C104.647 71.7899 104.205 59.1263 96.1309 51.597C88.0568 44.0677 75.3931 44.51 67.8639 52.5841Z" fill="black"/>
</g>
<defs>
<clipPath id="clip0_50_6">
<rect width="96" height="96" fill="white" transform="translate(1.01013 83.2202) rotate(-47)"/>
</clipPath>
</defs>
</svg>
